<svg width="322" height="120" viewBox="0 0 322 120" fill="none" xmlns="http://www.w3.org/2000/svg">
<g clip-path="url(#clip0_1_70)">
<path d="M70.1994 10.1994L60 0L0 60L60 120L70.0014 109.999L50.0014 89.9986L70.0014 69.9986L90.0014 89.9986L100.003 79.9972L80.0028 59.9972L100.003 39.9972L90.2022 30.1966L70.2022 50.1966L50.2022 30.1966L70.2022 10.1966L70.1994 10.1994ZM60.2008 60.2008L40.2008 80.2008L20.2008 60.2008L40.2008 40.2008L60.2008 60.2008Z" fill="black"/>
</g>
<path d="M142.528 45.688V44.536H159.04V45.688H156.416L162.176 67.256L167.872 45.688H163.456V44.536H172.096V45.688H169.408L161.728 75H152.96L147.392 55.352L141.376 75H132.8L123.328 45.688H120.448V44.536H139.84V45.688H136L141.888 67.448L146.496 52.472L144.896 45.688H142.528ZM192.437 62.392V56.952C192.437 52.8133 192.202 49.8053 191.733 47.928C191.306 46.008 190.282 45.048 188.661 45.048C187.722 45.048 186.954 45.3253 186.357 45.88C185.802 46.392 185.397 47.2667 185.141 48.504C184.757 50.424 184.565 53.3467 184.565 57.272V62.264C184.565 66.9147 184.693 69.7093 184.949 70.648C185.248 71.5867 185.546 72.3547 185.845 72.952C186.314 73.976 187.232 74.488 188.597 74.488C190.261 74.488 191.349 73.528 191.861 71.608C192.245 70.2427 192.437 67.1707 192.437 62.392ZM188.469 75.64C183.136 75.64 179.104 74.2747 176.373 71.544C173.642 68.8133 172.277 64.9093 172.277 59.832C172.277 54.712 173.728 50.7867 176.629 48.056C179.573 45.2827 183.69 43.896 188.981 43.896C194.272 43.896 198.218 45.176 200.821 47.736C203.424 50.2533 204.725 54.1147 204.725 59.32C204.725 70.2 199.306 75.64 188.469 75.64ZM227.891 46.328C226.312 46.328 224.926 47.352 223.731 49.4C222.536 51.448 221.939 53.88 221.939 56.696V73.848H226.483V75H206.515V73.848H210.035V45.688H206.515V44.536H221.939V50.68C222.494 48.504 223.56 46.84 225.139 45.688C226.718 44.4933 228.51 43.896 230.515 43.896C232.52 43.896 234.142 44.472 235.379 45.624C236.659 46.7333 237.299 48.3333 237.299 50.424C237.299 52.472 236.83 54.0507 235.891 55.16C234.952 56.2693 233.502 56.824 231.539 56.824C229.619 56.824 228.19 56.184 227.251 54.904C226.355 53.624 226.248 51.8533 226.931 49.592H229.235C230.302 47.416 229.854 46.328 227.891 46.328ZM258.506 75V73.848H261.45L254.218 59L253.002 59.32V73.848H255.946V75H237.578V73.848H241.098V28.152H237.322V27H253.002V58.04L254.026 57.656L268.426 45.688H262.41V44.536H275.018V45.688H270.538L262.922 52.152L273.994 73.848H276.298V75H258.506ZM278.737 75.64V64.184H279.505C280.614 67.896 282.108 70.4987 283.985 71.992C285.862 73.4853 288.209 74.232 291.025 74.232C295.377 74.232 297.553 72.8453 297.553 70.072C297.553 68.8773 297.02 67.9813 295.953 67.384C294.289 66.4453 292.156 65.72 289.553 65.208C286.652 64.44 284.22 63.416 282.257 62.136C279.91 60.6 278.737 58.168 278.737 54.84C278.737 51.512 279.761 48.8667 281.809 46.904C283.857 44.8987 286.588 43.896 290.001 43.896C292.092 43.896 294.246 44.3867 296.465 45.368C297.276 45.7093 297.894 45.88 298.321 45.88C298.748 45.88 299.11 45.7307 299.409 45.432C299.708 45.1333 300.07 44.5787 300.497 43.768H301.201V53.56H300.433C298.257 48.0133 294.886 45.24 290.321 45.24C288.316 45.24 286.822 45.6027 285.841 46.328C284.86 47.0107 284.369 47.8853 284.369 48.952C284.369 49.592 284.518 50.104 284.817 50.488C285.116 50.8293 285.35 51.0853 285.521 51.256C285.692 51.4267 285.969 51.6187 286.353 51.832C286.737 52.0027 287.057 52.152 287.313 52.28C287.569 52.3653 287.953 52.4933 288.465 52.664C289.02 52.8347 289.425 52.9413 289.681 52.984C292.582 53.7093 294.673 54.3493 295.953 54.904C297.233 55.416 298.449 56.056 299.601 56.824C301.948 58.4453 303.121 61.0693 303.121 64.696C303.121 68.28 302.054 71.0107 299.921 72.888C297.788 74.7227 294.865 75.64 291.153 75.64C288.508 75.64 285.948 75.0213 283.473 73.784C282.961 73.4427 282.556 73.272 282.257 73.272C281.318 73.272 280.401 74.0613 279.505 75.64H278.737ZM312.759 75.64C310.924 75.64 309.538 75.1067 308.599 74.04C307.703 72.9307 307.255 71.608 307.255 70.072C307.255 68.4933 307.724 67.1707 308.663 66.104C309.644 65.0373 311.01 64.504 312.759 64.504C314.508 64.504 315.895 64.952 316.919 65.848C317.943 66.744 318.455 68.088 318.455 69.88C318.455 71.672 317.964 73.08 316.983 74.104C316.044 75.128 314.636 75.64 312.759 75.64Z" fill="black"/>
<defs>
<clipPath id="clip0_1_70">
<rect width="100" height="120" fill="white"/>
</clipPath>
</defs>
</svg>
